<svg id="visual" viewBox="0 0 900 600" width="900" height="600" xmlns="http://www.w3.org/2000/svg" xmlns:xlink="http://www.w3.org/1999/xlink" version="1.1"><rect x="0" y="0" width="900" height="600" fill="#002233"></rect><path d="M0 294L8.3 320.8C16.7 347.7 33.3 401.3 50 399.5C66.7 397.7 83.3 340.3 100 332C116.7 323.7 133.3 364.3 150 392.2C166.7 420 183.3 435 200 415.3C216.7 395.7 233.3 341.3 250 332.7C266.7 324 283.3 361 300 393.3C316.7 425.7 333.3 453.3 350 462.2C366.7 471 383.3 461 400 424.8C416.7 388.7 433.3 326.3 450 287.7C466.7 249 483.3 234 500 250C516.7 266 533.3 313 550 326.5C566.7 340 583.3 320 600 302.3C616.7 284.7 633.3 269.3 650 275.3C666.7 281.3 683.3 308.7 700 328.2C716.7 347.7 733.3 359.3 750 382.8C766.7 406.3 783.3 441.7 800 422.8C816.7 404 833.3 331 850 297.8C866.7 264.7 883.3 271.3 891.7 274.7L900 278L900 601L891.7 601C883.3 601 866.7 601 850 601C833.3 601 816.7 601 800 601C783.3 601 766.7 601 750 601C733.3 601 716.7 601 700 601C683.3 601 666.7 601 650 601C633.3 601 616.7 601 600 601C583.3 601 566.7 601 550 601C533.3 601 516.7 601 500 601C483.3 601 466.7 601 450 601C433.3 601 416.7 601 400 601C383.3 601 366.7 601 350 601C333.3 601 316.7 601 300 601C283.3 601 266.7 601 250 601C233.3 601 216.7 601 200 601C183.3 601 166.7 601 150 601C133.3 601 116.7 601 100 601C83.3 601 66.7 601 50 601C33.3 601 16.7 601 8.3 601L0 601Z" fill="#0066FF" stroke-linecap="round" stroke-linejoin="miter"></path></svg>